<svg height="308" id="168488613987581933" width="560" version="1.1" 
		xmlns:dc="http://purl.org/dc/elements/1.1/"
		xmlns:cc="http://creativecommons.org/ns#"
		xmlns:rdf="http://www.w3.org/1999/02/22-rdf-syntax-ns#"
		xmlns:svg="http://www.w3.org/2000/svg"
		xmlns="http://www.w3.org/2000/svg"
		xmlns:sodipodi="http://sodipodi.sourceforge.net/DTD/sodipodi-0.dtd"
		xmlns:inkscape="http://www.inkscape.org/namespaces/inkscape"
		viewBox="0 0 560 308" style="width: 560px; height: 308px;transition: 0.3s;border-radius: 5px; position: absolute; top: 50%;font-size:48px; left: 50%; transform: translate(-50%, -50%) scale(5); z-index: 0; cursor: pointer;"><defs><style type="text/css">@import url("https://fonts.googleapis.com/css2?family=Fascinate ");</style></defs><defs><style type="text/css">@import url("");</style></defs><style>.mytextnew168488613987581933{text-align:center;font-family: 'Fascinate', cursive;}.mytextnew2168488613987581933{text-align:center;font-family: 'Fascinate', cursive;}</style><g id="168488613987581933" featurekey="nameFeature-0" fill="#000"  transform="translate(230,145) scale(0.78125)"><g clip-rule="evenodd" fill-rule="evenodd"><g><path d="m86.904 86.141h-46.233c-4.394 0-7.087 3.686-7.965 7.965l-6.775 32.883h75.713l-6.775-32.883c-.879-4.28-3.572-7.965-7.965-7.965z" fill="#51586c"/><path d="m55.411 126.988-7.2-40.847h31.153l-7.2 40.847z" fill="#f3c811"/><g><g><path d="m83.672 86.141h-8.589l-7.2 40.847h8.589z" fill="#e1786a"/><path d="m83.672 86.141h-4.308l-7.2 40.847h4.308z" fill="#da5751"/></g><g><path d="m52.491 86.141h-8.589l7.2 40.847h8.589z" fill="#e1786a"/><path d="m48.211 86.141h-4.309l7.2 40.847h4.309z" fill="#da5751"/></g></g></g><g><path d="m54.333 71.486h18.907v18.594c-1.871 2.297-5.414 3.855-9.468 3.855-4.025 0-7.568-1.559-9.439-3.855z" fill="#ffd7b3"/><path d="m54.333 75.227h18.907v8.25c-2.863 1.359-6.066 2.125-9.468 2.125-3.373 0-6.576-.766-9.439-2.125z" fill="#fc9"/><path d="m45.943 40.617h35.688v22.506c0 9.809-8.022 17.83-17.858 17.83-9.808 0-17.83-8.021-17.83-17.83z" fill="#ffd7b3"/><path d="m41.918 59.863c6.095-.426 16.186-2.408 16.186-10.828 0 0-.681 13.578 27.553 13.578v-11.537c0-12.02-9.836-21.855-21.884-21.855-12.019 0-21.855 9.836-21.855 21.855z" fill="#c77f4e"/></g><g><g fill="#f3c811"><path d="m99.348 45.463c1.502 0 2.722-1.219 2.722-2.721s-1.219-2.721-2.722-2.721c-1.502 0-2.721 1.219-2.721 2.721s1.219 2.721 2.721 2.721z"/><path d="m99.348 45.463 2.324 6.406h-4.649z"/></g><g><path d="m85.288 25.111v15.024l-21.515 9.636-21.486-9.636v-15.024z" fill="#424a60"/><path d="m28.227 18.818 35.546-15.931 35.575 15.931-35.575 15.903z" fill="#51586c"/></g></g></g><g><path d="m37.112 116.982h4v10.006h-4z"/><path d="m86.463 116.982h4v10.006h-4z"/><path d="m86.904 84.141h-11.663v-5.396c4.554-3.231 7.7-8.319 8.289-14.158.697.017 1.405.027 2.127.027h2v-13.538c0-3.061-.627-6.132-1.809-9.001l1.44-.645v-15.031l10.06-4.496v16.579c-1.602.756-2.721 2.374-2.721 4.26 0 1.653.858 3.105 2.148 3.948l-2.604 7.179h10.355l-2.605-7.179c1.291-.844 2.148-2.295 2.148-3.948 0-1.886-1.119-3.504-2.722-4.26v-18.367l2.897-1.295-40.472-18.125-40.439 18.125 16.954 7.584v15.026l1.44.646c-1.181 2.869-1.809 5.94-1.809 9.001v10.932l2.139-.149c.647-.045 1.272-.106 1.886-.175v.9c0 6.673 3.323 12.573 8.39 16.169v5.388h-11.662c-4.911 0-8.714 3.664-9.924 9.562l-6.775 32.883 3.918.807 6.775-32.884c.307-1.494 1.646-6.367 6.006-6.367h11.663v1.939h4v-9.127c2.3.935 4.808 1.461 7.439 1.461 2.642 0 5.16-.528 7.468-1.468v9.134h4v-1.939h11.663c4.36 0 5.699 4.874 6.006 6.368l6.775 32.883 3.918-.807-6.775-32.882c-1.211-5.9-5.014-9.564-9.924-9.564zm-3.247-33.065v9.513c-12.55-.308-18.332-3.507-20.982-6.213-1.479-1.509-2.107-2.975-2.375-3.971l3.473 1.558 18.428-8.254c.961 2.359 1.456 4.828 1.456 7.367zm-19.884-45.998 30.677 13.738-30.677 13.714-30.652-13.714zm-.001 31.833 19.516-8.724v10.651l-19.515 8.742-19.487-8.74v-10.646zm-19.854 14.165c0-2.538.494-5.007 1.455-7.365l11.702 5.248-.968-.024c-.002.047-.005.134-.004.257-.119 5.847-6.927 7.82-12.185 8.471zm4.025 11.508v-1.555c4.821-1.078 8.295-3.044 10.263-5.801.402.585.881 1.184 1.451 1.782 3.966 4.17 10.638 6.636 19.864 7.367-.896 7.886-7.613 14.036-15.749 14.036-8.728.001-15.829-7.1-15.829-15.829z"/></g></g><g id="168488613987581933" featurekey="nameFeature-0"><text x="50%" y="100" dominant-baseline="middle" text-anchor="middle" class="mytextnew168488613987581933" style="font-size:48px;fill:#000;">attendr</text></g></svg>